{
  "asset": {
    "generator": "Khronos glTF Blender I/O v3.6.27",
    "version": "2.0"
  },
  "extensionsUsed": ["KHR_materials_transmission", "KHR_materials_ior"],
  "scene": 0,
  "scenes": [
    {
      "name": "Scene",
      "nodes": [0, 1, 2, 3]
    }
  ],
  "nodes": [
    {
      "mesh": 0,
      "name": "Bottle",
      "rotation": [0, 0.07588992267847061, 0, 0.997116208076477],
      "scale": [0.323253333568573, 0.14024123549461365, 0.323253333568573]
    },
    {
      "mesh": 1,
      "name": "Label",
      "rotation": [0, 0.07588992267847061, 0, 0.997116208076477],
      "scale": [0.3532511591911316, 0.13162779808044434, 0.3532511591911316],
      "translation": [0, -0.010620296001434326, 0]
    },
    {
      "mesh": 2,
      "name": "Cap",
      "rotation": [0, -0.997116208076477, 0, 0.0758899450302124],
      "scale": [0.34826576709747314, 0.09790559113025665, 0.34826576709747314],
      "translation": [
        -6.778638180549024e-6, 0.4211518466472626, 1.1781643479480408e-5
      ]
    },
    {
      "mesh": 3,
      "name": "Cream",
      "rotation": [0, 0.07588992267847061, 0, 0.997116208076477],
      "scale": [0.323253333568573, 0.14024123549461365, 0.323253333568573]
    }
  ],
  "materials": [
    {
      "doubleSided": true,
      "extensions": {
        "KHR_materials_transmission": {
          "transmissionFactor": 1
        },
        "KHR_materials_ior": {
          "ior": 1.7999999523162842
        }
      },
      "name": "Material.002",
      "pbrMetallicRoughness": {
        "baseColorFactor": [
          0.44937118887901306, 0.13960225880146027, 0.05170769616961479, 1
        ],
        "metallicFactor": 0,
        "roughnessFactor": 0
      }
    },
    {
      "doubleSided": true,
      "name": "Material.001",
      "pbrMetallicRoughness": {
        "baseColorTexture": {
          "index": 0
        },
        "metallicFactor": 0,
        "roughnessFactor": 0.8904109597206116
      }
    },
    {
      "doubleSided": true,
      "name": "Material.003",
      "pbrMetallicRoughness": {
        "baseColorFactor": [
          0.011746357195079327, 0.011746357195079327, 0.011746357195079327, 1
        ],
        "metallicFactor": 0.5371428728103638,
        "roughnessFactor": 0.6257143020629883
      }
    },
    {
      "doubleSided": true,
      "name": "Material",
      "pbrMetallicRoughness": {
        "baseColorFactor": [
          0.800000011920929, 0.800000011920929, 0.800000011920929, 1
        ],
        "metallicFactor": 0,
        "roughnessFactor": 0.5
      }
    }
  ],
  "meshes": [
    {
      "name": "Cylinder",
      "primitives": [
        {
          "attributes": {
            "POSITION": 0,
            "NORMAL": 1,
            "TEXCOORD_0": 2,
            "TEXCOORD_1": 3
          },
          "indices": 4,
          "material": 0
        }
      ]
    },
    {
      "name": "Cylinder.001",
      "primitives": [
        {
          "attributes": {
            "POSITION": 5,
            "NORMAL": 6,
            "TEXCOORD_0": 7
          },
          "indices": 8,
          "material": 1
        }
      ]
    },
    {
      "name": "Cylinder.002",
      "primitives": [
        {
          "attributes": {
            "POSITION": 9,
            "NORMAL": 10,
            "TEXCOORD_0": 11,
            "TEXCOORD_1": 12
          },
          "indices": 13,
          "material": 2
        }
      ]
    },
    {
      "name": "Cylinder.003",
      "primitives": [
        {
          "attributes": {
            "POSITION": 14,
            "NORMAL": 15,
            "TEXCOORD_0": 16,
            "TEXCOORD_1": 17
          },
          "indices": 18,
          "material": 3
        }
      ]
    }
  ],
  "textures": [
    {
      "sampler": 0,
      "source": 0
    }
  ],
  "images": [
    {
      "bufferView": 9,
      "mimeType": "image/png",
      "name": "img3"
    }
  ],
  "accessors": [
    {
      "bufferView": 0,
      "componentType": 5126,
      "count": 19809,
      "max": [1.0901048183441162, 2.8354673385620117, 1.0901048183441162],
      "min": [-1.0901046991348267, 0.010102629661560059, -1.0901048183441162],
      "type": "VEC3"
    },
    {
      "bufferView": 1,
      "componentType": 5126,
      "count": 19809,
      "type": "VEC3"
    },
    {
      "bufferView": 2,
      "componentType": 5126,
      "count": 19809,
      "type": "VEC2"
    },
    {
      "bufferView": 3,
      "componentType": 5126,
      "count": 19809,
      "type": "VEC2"
    },
    {
      "bufferView": 4,
      "componentType": 5123,
      "count": 96366,
      "type": "SCALAR"
    },
    {
      "bufferView": 5,
      "componentType": 5126,
      "count": 1651,
      "max": [1, 2.2390947341918945, 1],
      "min": [-1, 0.23909473419189453, -1],
      "type": "VEC3"
    },
    {
      "bufferView": 6,
      "componentType": 5126,
      "count": 1651,
      "type": "VEC3"
    },
    {
      "bufferView": 7,
      "componentType": 5126,
      "count": 1651,
      "type": "VEC2"
    },
    {
      "bufferView": 8,
      "componentType": 5123,
      "count": 9072,
      "type": "SCALAR"
    },
    {
      "bufferView": 10,
      "componentType": 5126,
      "count": 8508,
      "max": [0.9999743700027466, 0.7877922058105469, 1.0000320672988892],
      "min": [-1.0000256299972534, -1.2122077941894531, -0.9999679327011108],
      "type": "VEC3"
    },
    {
      "bufferView": 11,
      "componentType": 5126,
      "count": 8508,
      "type": "VEC3"
    },
    {
      "bufferView": 12,
      "componentType": 5126,
      "count": 8508,
      "type": "VEC2"
    },
    {
      "bufferView": 13,
      "componentType": 5126,
      "count": 8508,
      "type": "VEC2"
    },
    {
      "bufferView": 14,
      "componentType": 5123,
      "count": 42228,
      "type": "SCALAR"
    },
    {
      "bufferView": 15,
      "componentType": 5126,
      "count": 2176,
      "max": [0.8940174579620361, 2.0277328491210938, 0.8940174579620361],
      "min": [-0.8940174579620361, 0.7427071928977966, -0.8940174579620361],
      "type": "VEC3"
    },
    {
      "bufferView": 16,
      "componentType": 5126,
      "count": 2176,
      "type": "VEC3"
    },
    {
      "bufferView": 17,
      "componentType": 5126,
      "count": 2176,
      "type": "VEC2"
    },
    {
      "bufferView": 18,
      "componentType": 5126,
      "count": 2176,
      "type": "VEC2"
    },
    {
      "bufferView": 19,
      "componentType": 5123,
      "count": 11508,
      "type": "SCALAR"
    }
  ],
  "bufferViews": [
    {
      "buffer": 0,
      "byteLength": 237708,
      "byteOffset": 0,
      "target": 34962
    },
    {
      "buffer": 0,
      "byteLength": 237708,
      "byteOffset": 237708,
      "target": 34962
    },
    {
      "buffer": 0,
      "byteLength": 158472,
      "byteOffset": 475416,
      "target": 34962
    },
    {
      "buffer": 0,
      "byteLength": 158472,
      "byteOffset": 633888,
      "target": 34962
    },
    {
      "buffer": 0,
      "byteLength": 192732,
      "byteOffset": 792360,
      "target": 34963
    },
    {
      "buffer": 0,
      "byteLength": 19812,
      "byteOffset": 985092,
      "target": 34962
    },
    {
      "buffer": 0,
      "byteLength": 19812,
      "byteOffset": 1004904,
      "target": 34962
    },
    {
      "buffer": 0,
      "byteLength": 13208,
      "byteOffset": 1024716,
      "target": 34962
    },
    {
      "buffer": 0,
      "byteLength": 18144,
      "byteOffset": 1037924,
      "target": 34963
    },
    {
      "buffer": 0,
      "byteLength": 81645,
      "byteOffset": 1056068
    },
    {
      "buffer": 0,
      "byteLength": 102096,
      "byteOffset": 1137716,
      "target": 34962
    },
    {
      "buffer": 0,
      "byteLength": 102096,
      "byteOffset": 1239812,
      "target": 34962
    },
    {
      "buffer": 0,
      "byteLength": 68064,
      "byteOffset": 1341908,
      "target": 34962
    },
    {
      "buffer": 0,
      "byteLength": 68064,
      "byteOffset": 1409972,
      "target": 34962
    },
    {
      "buffer": 0,
      "byteLength": 84456,
      "byteOffset": 1478036,
      "target": 34963
    },
    {
      "buffer": 0,
      "byteLength": 26112,
      "byteOffset": 1562492,
      "target": 34962
    },
    {
      "buffer": 0,
      "byteLength": 26112,
      "byteOffset": 1588604,
      "target": 34962
    },
    {
      "buffer": 0,
      "byteLength": 17408,
      "byteOffset": 1614716,
      "target": 34962
    },
    {
      "buffer": 0,
      "byteLength": 17408,
      "byteOffset": 1632124,
      "target": 34962
    },
    {
      "buffer": 0,
      "byteLength": 23016,
      "byteOffset": 1649532,
      "target": 34963
    }
  ],
  "samplers": [
    {
      "magFilter": 9729,
      "minFilter": 9987
    }
  ],
  "buffers": [
    {
      "byteLength": 1672548,
      "uri": "data:application/octet-stream;base64,"
    }
  ]
}
